<svg xmlns="http://www.w3.org/2000/svg" viewBox="0 0 233.2 146.06"><defs><style>.cls-2{fill:#4a7020}</style></defs><g id="Layer_2" data-name="Layer 2"><g style="opacity:.15" id="art"><path class="cls-2" d="M74 89.17c1.83-.69-.38-2.24.65-3.1l-2.36-.41C72.33 82 90.18 73.94 84.11 73l.11.12c-.78-3.81 1.64-2 3.5-1.06A3.37 3.37 0 0 0 85 68.82l.09.1c-1-1.62 1.41-4.2 1-1.4.44.2.92.61 1.31.54 1.48-.23 2.93-.63 4.38-1 1.67-.38-2.13-1.21.14-1.56 6.82-3.29 12-14.46 15.8-21.1.51-2.32 1.07-6.35 4-3.86-2.59-2.15 6.54-.93 4.46-2.93a1.87 1.87 0 0 1 .23-3c.61 2.5 5 .67 3.77 3.1-2.29 3.63-1.15 9.12-5.65 10.94-.55.38-1.12.59-.51 1.32.26-1.95 2.37-1.25 1.43.66-1.16 3.76-4.73 4.54-7.17 7.46.93 2.42 2.24 3.24-1.42 3.69-1.28.41-7.76-.36-5 2l-.1-.1c.32.77.65.82 1 0l-.1.1a14.25 14.25 0 0 1 4.56.24c-3.65 2.71-3.3 9.41-8.23 10.59-2 .71-1.84 3.68.23 3.52 4.81 1.13 9.74-7.54 13.15 2.3.93 1.92 1.38-1.14 2.79-1.12 4.39 1 .55-7.45 5-3.4.79-1.46-2.83-3.51-.19-3.52 1.25.79 1.85.49 2.47-.87.41-1.58 6.62-4.71 5.78-2.45 0 4.93 12.48-6.06 12.87.36.81-1.77 3.49-1.79 4.27-3.73-2.26-.7-4.34 1-6.5 1.48 3-3.25 5-8 8.54-10.13l-.11-.11c2.13 3.38 4.16-4.57 7.21 2.36-1.17-2.28 1.58-3.16.53-5.61a.78.78 0 0 1 1.51.09c.27 1-.51 2.87 1.9 2 1.94 1.84-7.23 8.15-7.21 11.28 1.2-1 5.85-3.95 7.59-1.15 1.77-2.9 12-3.42 7.85 2.13l.1-.1c-2.36.48-2.17-2.34-4.77-.33 2.31 1.73 3.59-.61 3 3-1.41-1.83-7.43-2.81-4.59.8 1-.21 4-.56 2 .79-1.76.3-3.62-.74-4.76 1.53-2.76 1.53-6.83.83-9.79 2.49-13.95 2.77-28.26 5.85-40.57 8.54-2.06-1.32-3.06.26-4.17 1.08-4.83 3.16-10.65.4-14.77 5l.11-.12c-17-2.14-32.87 21.47-52 13.9-.23-7.57.65-.29 3.62-3.32 1.38-.7-.65-3.44-.9-4.28-.31 1.71-1.61 2.43-2.13 3.92-1.88 2.39-5.77-1.49-2.75 3.61-3.46.43-9.71-2.65-2.74-2.29-3.17-3.12-5.25 1-7.95 2 .27 5.52-5.89 9.73-8.25 14.66-2.28 2.66-1.24-2.32-2.83-2.89.82-.92 2.48-2.87 0-3.38l.12.12c-.31-1.6 0-1.79 1.41-2.18-.68-.16-1.22-.42-1.41.5-.81-.22-3-2.27-.83-2 2.28 1 4-1.84 5.65-1-2.33-1.6 2.62-1.13 3.29 0-1.17-1.07.4-4.91 1.54-6-.88-.68-2.65-.83-2.81-2.08 1.19-.4 2.5.4 3.35-1.18 3.29-2-2.83-2.85-.44-5.51 6-6.88 11.83-17.81 19.47-21.49-1.64-2 5.71-7.85 7.58-7.31-1.53 5.42 4.33.35 3.91-2.68.38-2.28-1-.32-1.86-1.24 2.41-8.09 4.6-2.07 6.65-4.34l-.11.11c3.35.49 2.07.48 3.88-1.57 2.51-.79-.89-.85-.34-2.67 1.3-1.64 3.48.36 3.32-2.63 3.13.12-1.4 3.95 2.5 5.18l-.11-.12c-5.2 10.18-17 18-24 27.76-.47 3-8.15 1.73-5.21 4.41 1 3.57-4.06-.81-5 .69-2 2.08 2.13.57 2.33 2.37.63 1.77-2.78 5.15-3.86 2.29-.25-.45 1.77-.28.39-1.09-2.84.58-1 4.19 1.47 3.9 4.65.4 9.91 3.15 14.23.63 2.69-1.18 6 2.36 2.52 3.28 3.18.06 2.44 2.47 1.77 4.45 1.46-1.53 5.51-4 3-6.08-2.7 1.32-.54-1.2-1.18-2.36s.07-1.26 1-1.51c4.66-.94 7.72-2.94 11.68-5.17 3.07-2.67 1.15 7 3.65 1.84l-.12.13c2.23-.38 4.52 2.4 4.32-1Zm69.08-17.71-.56-.39a4.78 4.78 0 0 1 1.27.7ZM92.63 85.67l.57.42a3.27 3.27 0 0 1-1.2-.74ZM85 77.24l.46-.57a4.58 4.58 0 0 1-.73 1.15Zm41.37-3.36.57.39c-.89-.16-.58-1.08-1-1.76-.69.4.19.9.38 1.37Zm-16.98-31.19c.84-.19.62-.68.45-1.31-.61.6-.11 1.43-.77 2Zm-.85 36.36-.52-.43c1 .27 1.8 1.66 2.82.93-.59-.78-1.46-.55-2.3-.5Zm44.74-9.29c-1.87.21-1.22 1-.49 2.24.18-1.39 1.23-2.59.87-3.65a1.71 1.71 0 0 0-.38 1.41Zm-4.3.74c1.49.36 2.19-.83 1.35-2.14a5 5 0 0 1-2.69 2.71c.71.48.95-.07 1.36-.57ZM58.85 59.65c-.43-.49-.7-1-1.36-.43 1.09.42 1.95.54 2.59 1.71 1.16-1.72-.08-2.29-1.23-1.28ZM35.36 99.28l-1.67-.17c.78 3.46 2.31 0 2-1.3a1.75 1.75 0 0 0-.33 1.47Zm68.12-38.9c4.6 1.14 2.28-2.18-1.29.39.38.84.81-.01 1.29-.39ZM60.53 95.89l-.53-.41c3.08 4.34 4.58-1.8.53.41ZM95.06 84c.68 2.07 3.32 1.1 3.94.25.18-1.79-2.23-.62-3.18-1.48-1.46 0-.07 1.4-1.09 2Zm-8.31-5.9c-3.62 4.72 5.29.69 7-.48-1.18-.41-3.33.22-4.2 0-1.5-2-2.16-.58-2.93.58Zm35.91-1.25c-.86 1.05-.08 1.82.49 2.75 3.5-3.12-1.15-7.98-.49-2.78Zm32.21-5.73c.08.25.31 1 .53 1.65 3.82-2.21-.69-6.93-.53-1.68Zm-99.5-11.37c.81-.77.94-1 .17-1.7-.89.53-.8.78-.17 1.7ZM48 102.58c.4-.37 1.52-.75 1.25-1.45-.86-.5-2.59.93-1.25 1.45Zm-2.27-1.13-.61-1.25c-1.3 1.26-.97 3.22.56 1.25Zm11.88-5.66c0-.66.77-2-.14-1.84-.36.86-1.34 1.36.09 1.84Zm32.22-26c-.25-1.33-1-.65-1.91-.69.22 1.25.85.9 1.86.72Zm5.54 6.59c.49-.82-.13-1-.62-1.48-.59.88-.25 1.15.57 1.51ZM114.23 44c-.41-.13-.74-.41-1 0 .31.38.58.29 1 0ZM57.08 63.17c-.13-.29-.17-1-.5-.51-.07.55-.03.88.5.51Zm90.83 1c-.49-.25-.76-.29-1 .24.45.18.75.28 1-.28ZM136 72.59c-.5.25-.15.63 0 1 .41-.24.09-.59 0-1ZM90 86.71c-.16-.34-.31-.95-.62-.43-.06.6.09.84.62.43Zm-13.48-.88c-.9.48-.13.84.54.39Zm65.67-11.71c-.21-1-.6-.62-.48.22Zm-35.58 3.51c-.4-.1-.72-.33-1 .05.39.37.6.37.97-.05Zm-15-1.58-.21-.23v.43ZM93 74.94v.42c.25-.14.28-.22 0-.42Zm33.93 2.8c-.11-.25-.3-.3-.4 0 .05.26.24.26.39 0ZM83.8 80l-.24.22H84Zm15.9 1.59v.58c.36-.17.38-.29 0-.55Zm7.81 2-.25-.17v.27ZM34.9 85.17l-.15.23h.24Zm111.4-12.46c-.17-.08-.29-.21-.28.08ZM88 88.07c.11-.22.25-.35-.1-.33Zm-23.61 2.15-.2.21h.32Zm-1.46 2.7c-.21-.09-.35-.25-.33.1ZM58.3 98.8l.26.18v-.29Zm-15.89 1 .17-.28h-.28Zm-27.14 10.79.27.18v-.29Zm1.12 3.17-.15.23h.25Zm31.35-46.1c-.13-.26-.29-.27-.47 0 .16.22.27.24.47 0Zm107-.89c-.15-.29-.4-.34-.52 0 .1.29.36.23.54 0Zm-47.17-6.7-.25-.27v.49ZM152 58.51l.17-.2h-.28Zm-41.47-11.17.22.17v-.29Zm4.65-6.67c-.18-.29-.31-.3-.53-.05.18.28.35.3.53.05Z"/><path class="cls-2" d="M207.1 53.65c-1.09 7.17 2.39-3.59 3.76-.73 1 2.35 7.85 2.64 7.55 5 0 2.17-1.15 2.93-3.48 2.61-2.61 1.4 2.15 2.19 3.24 2.56l-.13-.12c1.81 1.44 1.05 1.11 1.46 2.72-2 1.34-4.68.51-6.51 2.44l.1-.12c-1.56.47-1.79 1.51-2 2.94-3.09 1.78-.29-4.55-4.82-2.08l.09.09c-.32-.78-.64-.82-1 0l.09-.09c-3.35 2.64-3.43-.92-.52-2.25-5.17-1 .18 5.39-11.38 4 6-7.07-.82-3-1.73-6.87-.88-.56-.87 1.54-1.16 2.18.67.7 3.29.12 2.5 1.84-3.25-1.15.8 2.44.33 3.1-2.84-.06-16 3.11-13.06-.52 4.35-.18 1-6.7-1.93-4.7-1.28 2.78-5 0-4.32 3.28l.1-.11c-2-.08-2.26 3-4.12 1.34-.8-.66-2.39-1.29-1.39-3 2.11-8 25.83-3.93 31.61-5.77 17.59-.3-36.31-15-41.36-12.78l.11.11c-5.78-1.9.18-4.16-4.06-3.8-6.71 4.83-23.1-.38-33.26 4.29-4.18 0 4.51-7.53.68-8.07-2.94-6 56.33-6.11 34.44.83-.12 1.23 2.38.41 3.25.46a2.31 2.31 0 0 1 3.56-1.35c1 1.1 1.26.23 1.31-.72-.31-1.24.81-2.2 1.55-.9 0 1.5-.39 2.85 1.81 2.52l-.13-.11c1.27 1.34 1.47 5.43 4.45 4.89 2.14-2-2.06-2.93-.46-5 9.07-2.66 22.94 4.24 31.52 8.62-.39.13-.85.17-.38.53.37-1.52 4.85-.09 2.92 1.72-.07.09.53.73.81 1.12Zm.84 9.4-.5-.43c2 .88-.82 1.47-.68 2.69 1.57 0 .72-1.48 1.78-2Zm3.48-6.75a3.24 3.24 0 0 0-2.36.34c1.15 1 2-.11 2.65-1Zm-71.71-14.47c1.06-.09 2.24.25 3.18-.36-1.38-.76-2.76-.6-3.53 1Zm59.07 11.81.57.41c-1.52-.8 2-3.72-2.63-2.92a6.81 6.81 0 0 0 2.06 2.51Zm5.31 9.3c-1.39.59-.3 1 .34 1.66 1.3-.02.02-1.05-.34-1.66ZM146.35 39c-1.07-.68-1.3.09-2 .67.91.66 1.28-.05 2-.67Zm-21.56 4.54c-1.35.74-.08 1.37.22 2.32.61-.86.34-1.49-.22-2.33Zm73.85 23.13c-.13-1.09-.53-.7-1.17-.22-.11.8.65.37 1.17.21Zm2.1-3.58c-.58.88 0 1 .58 1.5.68-.84.1-1.07-.58-1.51Zm3.14-8.62c.29-.49.91-.84.21-1.3-.44.53-1.15.83-.21 1.29Zm-77.07-12.2c-.43-.13-.78-.49-1.08 0 .4.39.67.45 1.08 0Zm28.63 1c.13-.41.48-.75.05-1.06-.49.4-.4.68-.05 1.11ZM201 53.62c.28-.14.93-.21.5-.52-.5-.03-.82.01-.5.52Zm10 12.11c-.52.33-.42.65-.17 1.13.53-.31.39-.65.17-1.13Zm-20.55 3.53c.2.09.33.23.31-.1Zm16.42-2.61c-.22-.21-.35-.07-.52.12.27.04.65.32.55-.12Zm-6.75-.65c-.17-.12-.24-.2-.25.08Zm-15.27-.21-.16.24h.25Zm-8.46-.49.14-.21h-.23Zm-4.76-.14c-.2-.33-.34-.34-.59 0 .2.24.35.24.59-.04Zm26.08-.86-.24-.26v.49ZM211 63.1v.48c.21-.15.22-.24 0-.48Zm-11.77 0-.27.2.5.05Zm4.33-5.74c-.21-.19-.35-.06-.51.12.18.06.55.32.46-.09Zm-10-3.27c-.19-.1-.31-.24-.3.08Zm-32-6.71-.2-.27v.5Zm-38.16-1.53.16-.25h-.27Zm41.92-1.07.25.17v-.29Zm-4.61 0-.2-.23v.41Zm6.54-1c-.09.17-.21.26.08.26Zm-25-4.13c-.2-.29-.33-.29-.55 0 .12.2.3.47.44.07ZM161.62 106.85c2.46-.23.07 2.75 1.27 3.9 1.15-3.67 3.27 0 4.6-2.09.43-1.73-.85-3.62-2.3-1.51-2.11-3.27 1.56-2.05 3.26-2.82 2.13 5.54 2.43-1 4 1.7.29 5.88-9.63 7.22-14 8.53-2.24-1.65-3.41-1.53-4.67.41.71-1.74 3.08 1.64.53 1.39-3.24.55-8 5-10.31 1.36l.08.07c-.45-.48-.7-.74-1 0-7.33 7.67-48.45 10.59-55.74 2.66-2.56 5.52-24-6.33-27.2-9.13 2.13.85 3.88.56 4.94-1.6 1.54 2.69 2.59.41 4.79.65 3.06-4.47 17.12 2.65 22 4-1.19-.32-1.84.68-.4 1.38 1.56-3.4 16.92-1.5 12.52 5.07 6.21-2.32-.24-10.68 9.4-6.41.82 1 3.51-.42 2.46-1.6-1.5-1.34-3.31-5.61-4.59-2.67.1-2.2-1.9-6 1.37-6.37-2.16.78-3.21-1.27-3.19-3.83 4.28-4-2.65-4.81.13.11-1.49-.67-6.61-4.57-2.53-5.32.92-.25-1-1-.67-1.94 2.06-.16 3.9 2.75 6 1.12 1.44-.83 1.6 1.45 2.58.49.22.57.16 2.16.55 2.15-6.37.64.91 4.75-.42 7.43.21-2.1 2.25 1.66 1.67-1.19-.43-1.71 1.34-1.21 1.84-.72-3.3-3.9 2.12-2.8 1.6 1.18 1.92-.43 1.36 2 2.64 2.29-.11.37-.14 1-.33 1.06-2 .5-1.1 3.16-3.13 3.29a4 4 0 0 0-.13-2.12c-4.33 3.47-.87 2.36.85 5.67.81 1.42 1.06-.46 1.92-.26.57 1.43 1.42.8 2.37.45 10.57.07 26.41-7.81 36.6-7.81-.87.22-.52.47 0 1l-.09-.1c.32.57.65 1 1 0Zm-61.51 12.52.48-.52a1.4 1.4 0 0 1-1 .91c.41.43.41-.03.52-.39Zm46.34-4.21c5.94-1.57-.07-4.1-.31.65ZM74 112.93c0 2.08-1.23 3.53.4 3.87 1.92-1.07.6-1.8-.4-3.87Zm15.42 5.22c.79 1.41 1.29.36 2.19-.14-.34-1.34-1.32-.22-2.18.14Zm72-9.29c-.75-.21-1.28-.44-1.93 0 .8.27 1.28.73 1.99 0Zm-17.56 6.32c-.44-.35-.8-.89-1.34-.27.6.52.8 1.25 1.4.27Zm-46.27 4.45c-.27-1.12-.64-.75-1.21-.12.18.7.79.67 1.27.12Zm12.93-18.24c.43.12.76.43 1.06 0-.35-.39-.58-.47-1 0Zm6.87 4.79c-.12.21-.23.31.09.31Zm51.36 2.5-.18.25h.3Zm-94.55 1.89.26.15v-.26Zm76.05.6-.26.23h.48Zm12 1.18c-.16-.3-.29-.31-.51 0 .26.24.37.25.59 0Zm-97.13.94.18-.25H65Zm6.13 2.4c-.15-.27-.27-.28-.47 0 .22.2.35.22.55 0Zm16.78.79-.23-.17v.27Zm29.28 7c.26-.16.27-.28 0-.49-.12.15-.14.27.08.48ZM72.3 14.14c1.43-2.67 5 1 5.88 2.65C59.27 22.49 43.13 35.6 32 52.07c-.28-3.48-5.85-1.26-6.49 1.23 2 .55 3-.69 4.79-.37l-.1-.12c-.54 5.63-4.82 4.17-9.26 5.06L21 58c-1-2.12 1.25-3.65 1.1-5.63.59-.49 2.45-.34 2-1.81-.54-3.12-.5-3.13 2.78-4.51-.57 2.2 2.77 1.21 2.5-.7 0-.13.47-.42.72-.41 2 .6-2 7.19 2.28 2.59 7.89-8.79 2.29-3 4.13-9.21 1.56-2.19-3-3.59-2.61-.71.43 1.74-.94 1-2 1.66 1.51.51-.75 2.26 1 2.91.7.26 1 1.52 1.54 2.32-.94 0-4.32.32-3.09-1.55-.39 1.47-2.31-1.16-2.69 1.26-.28 1.16-.42 2.17-1.94 2-1.16-4.18 5.36-9.86 8.43-12.27 6.48-8.81 19.68-20.49 31.81-22l-.63-.33c3.7-1.54 6.92-4 10.78-2.14-1.8 1.74-4.5-.93-5.54 1.86-.57 1.22-2.04-.13-1.69 1.67.22 2.12 4.27.28 2.09 3.43.41-1.16 2.34-1.43.33-2.29ZM67 16.63c3.92.46 2.58-3.49-.35-3.23-1.96 1.44-3.47 3.6.35 3.23ZM29.24 49.17c-.33-.61-.67-.52-1.18-.2.34.53.68.48 1.18.2ZM47.56 29c.13-.37.47-.72 0-1-.47.33-.43.59 0 1Zm11.87-6c-.61.22-.44.53-.21 1 .57-.33.42-.63.21-1.07Zm2.43-2.64c-.46.29-.14.67 0 1.07.49-.33.14-.7 0-1.14Zm4.44-.4c.25-.13.89-.18.49-.48-.52-.15-.79-.1-.49.41Zm-1.93.77.17-.27h-.29Zm-8.44 3.73v.47c.26-.23.28-.32 0-.54Zm-10.06 3.39-.17.25h.28Zm-4.44 1 .22.16v-.27ZM30.65 41.71c.26-.16.27-.27 0-.47-.21.15-.22.27 0 .47Zm12.93-7.79c-.14-.26-.36-.32-.47 0 .05.24.3.25.47 0ZM189.42 98.31c3.34 3.48-7.08 4.76-8.3 6.89-.39-3.16-2.79.21-4.7-5.69 6.47 2.6 1.5-5.19 7.62-6.91 11.17-2.65 38.59-34.28 44.82-24.85 1.25 3.76 1.52 6.11-2.68 7-.94 1.57-3.45-.36-4 2.25-.62 1.77-3.41 3.22-5 4.56.32-1.69-1.86-2.26-3-2.13 2.92 0 4.14 4.61.26 3.29a4.16 4.16 0 0 0-5.17 1.78c-.88-2.1-5.41.25-3 1.25l-.1-.1c.47 5.23-3.34 7.4-7.92 7.68-2.06 3.93-4.28 1.52-7.66 1.72-3.93-.86 2.46 3.42-2.74 3.23.62.85.98.77 1.57.03Zm32.84-26.84c-1.09-2.93.87.54-1.07.74-4.82.52-13.68 5-3.86 5-.18 4.08 3.3-2 4.06-2.23 2.72-1.72 7.94-2.64.87-3.51Zm-12.87 10.67c8.78-2-1.61-3.3-3.49 0 1.35-.06 2.15-.83 3.49 0Zm-11.94 4.94c-1.52 1-.43 1.22.52 2 1.03-.51-.12-1.25-.52-2Zm-3.36 3.06c-1.91-.36.39 2.51 1.18 1.92.23-.68-.98-1.44-1.18-1.92Zm14.64-12.08c.42.55.75 1 1.49.59-.56-.58-.76-1.65-1.49-.59Zm14.88-8.7c.11-.34.39-.67 0-1-.37.35-.31.64 0 1Zm-41.88 30.87c-.12-.28-.16-.92-.46-.49-.09.52-.06.81.46.49Zm13.72-6.79c-.92.41-.27.79.39.42Zm-6.44.37c.38.12.68.43.93 0-.35-.39-.58-.42-.94 0Zm14.36-4.48a.75.75 0 0 0-.06 1.19.75.75 0 0 0 .06-1.19Zm-3.17.58c.3-.16 1-.24.53-.58-.58-.05-.9.03-.53.58Zm11.38-12.17.26.18v-.3ZM202.83 87l-.26-.3v.57Zm-4.23 3.33c-.19-.31-.33-.32-.55 0 .19.28.33.3.55.03Zm-1.31 1.7.21.17v-.28Zm28.8-21.75.15-.23L226 70ZM97.58 18.26c-.63 2.87 3.54.54 3.17 2.83-.66 1.3-2.15-1.15-3.16.63l.11-.11c-1.26 1.46-6.13 2.33-5.62 3.76 4.94 1.34 3 .38 5.5-2.05 2.76 1.21-.19 4.09-2 4.42.89 3.41-3.79 3.34-5.64 5-1 2.91-3.17 4-2.86.21a1.91 1.91 0 0 0-.35 1.46c-5.64.22 1.88 3.31-1.85 4.06C81 40.92 77.86 46.59 73 49.52c-3.67 1.56-2.16-3.64 1.1-3.35l-.1-.12c.28.8.54.51 1 0l-.11.11c1.65-.83.59-2.3.81-3.47.74-.9 2-1.56.42-2.22-.14 5.05-2.09-.16-4.64 1.29-.22-.3-.56-.56-.64-.89.8-2.59 2.73-4.44 1.63-7.46 2.21 5.93 19.18-14.34 25.26-15Zm-8.42 8.59c-.26-1.44-1.57.11-2.28.53.52 2.67 1.71 1.11 2.28-.53Zm7.18-6.2c.25-.12.3-.32 0-.43-.22.06-.22.27 0 .43Zm-5.22 6.48.27.18v-.29Zm1 1.94c.26-.13.31-.34 0-.45-.23.06-.23.28 0 .45Zm-1.39.65c-.17-.27-.31-.29-.53 0 .18.22.31.28.53 0ZM117.82 23.41c4.07-2.3-2.58-2.64-.22-7.75 1.94-1.93 2.8-2.5 2.86-3.92-.29-1.92 4.17-4.49 3.76-2.22-1.55.88-4.69 3.83-2.3 5.11 1.63-.48 1.38 2.93 3.41 1.62 3.51-.19-1 6.54-1.23 8.61-1.31 3.44-5.1-1.46-6.22 3.45.44 2.35-3.38 1-3.14-.89.51-7.08 2.73.5 3.16-4.1Zm3.45-3.49.55.41a3.19 3.19 0 0 1-1.2-.71Zm2.3 1.37-.26-.17v.3Zm-.81 3.35-.25-.28v.53ZM103.48 8.12c7.65.44-9.37 5.94-10 3.19 1.3-2.06 5.78-1.88 7.25-5.3-10.35-1.56-.51-5 4.68-5.26-1 3.48-1.75 5.15-2.27 8.06Zm-4.25-4c-.16-.35-.29-1-.6-.43-.01.57.12.88.6.43ZM64.86 47.88c.52-2.82-.77-9.77 4.19-6.75l-.12-.13c1.47 3.83-2.93 4.29-4.07 6.88ZM220 60.33c-.24-4 3.45-.55 4.57.86.36.8-2 .26-1.63 1.78-1.41 1.7-3.47-.91-2.94-2.64Z"/><path class="cls-2" d="M97.68 101.68c-4.83-1-.73-5 2.46-4.9 3-.74 3.45 4.36.18 2.12-2.64-.7-3.25 0-2.75 2.91ZM159.08 48.59c.13 1.06 1.63 3-.08 3.28-.67-.23-1-2-2.09-.22-.22.36-2-.25-3.08-.47-3-1.55 4.09-1.65 5.36-2.48ZM5.59 122.76c-3.55.45-1.19-1.86-.52-3.38 1.98-1.84 5.07 3.92.52 3.38ZM84.32 8c-3.39-1.77 4.47-5 3.85-1.19-1.57-.69-1.73 1.85-3.85 1.19ZM127.87 8c0 2.41-2 4.18-1.12 6.48-4.13 2.62.71-9.72 1.12-6.48ZM131.4 59.65c2.89-5.12 7 2.74-.12-.12ZM110.13 1.63c-1.14.29-2.48 1.52-3.59 1.24-.08-2.46 2.86-4.36 3.59-1.24ZM105.16 17.41c1.1 3.63.26 4.68-3.36 5 2-.69 1.77-3.83 3.47-4.92ZM168.47 42c-1.07-5.41 6.1 1.76-.13-.11ZM72.29 85.66c1.72 1.24-1.17 2-.34 3.15-1.58.18-2.19-2-1.21-3.13l-.11.11h1.81ZM103 90.88c1.35-1.36 3.71-.19 5.27.34-.7.68-5.16 1.21-5.27-.34ZM20.93 57.87c-.16.88.64 2.09-.85 2.52l.11.1c-.06-1.11-2-1.43-1.09-3.05 1-1.89.91.26 1.93.56ZM112.74 6.45c-1 .8-1.9 1.64-2.83 2.47-.69-2.31.85-3.24 3-2.35ZM176.08 104c2.08 1.64.56 1.94-.58 3.24-1.11-1.42-1.04-2.1.58-3.24ZM12.49 112.64c.87 2.27-3.8 1.4-3-.59.54-1.85 1.88.46 3.09.71ZM19.2 69.77c-.92.35-1.89 1.6-2.82 1.35.22-1.58 1.8-2.96 2.82-1.35ZM107 16.67c1.54-2.61 5.86.32 1.59.74l.11.11-1.81-1ZM10.82 117.7c2 1.94-1.56 2.61-2.28.87.28-1 1.54-.79 2.37-.77ZM210.47 86.53c-2.05 4.5-4.5-2.75.11.11ZM116.68 75.37l-1.3 1.75c-1.6-1.04-.22-2.76 1.3-1.75ZM85.46 15.24c-1.23 1.48-2.5-1.31-1.19-2.08 1.01-.16.85 1.4 1.19 2.08ZM130.73 65.81c-1.15.67-1.7 1.55-2.52.09 1.09-.64 1.49-1.72 2.52-.09ZM168.57 101.84c.75-.08 1.39.6 2.05.92.04 1.34-4.23-.4-2.05-.92ZM.83 144.77c-.14-1.46-.14-2.87 1.68-3.35l-.13-.12c.07 1.44.19 2.89-1.68 3.35ZM2.51 141.42c-.1-1.11-.14-3.21 1.82-2.48.76 1.06-1.96 1.69-1.82 2.48ZM4.93 132.14c2.07-.69 1.41 2.24.35 3-1.43-.71-.45-2-.25-3.1ZM64.86 49.42c-2.86.69-2.78-2.31 0-1.54l-.11-.12v1.8ZM81.71 73c-1.33 0-2.71.26-3.95-.32a3.32 3.32 0 0 1 3.95.32ZM90.82 3.85c1.55 1.57-.49 2.07-1.37.54ZM69 49.55c1.19.48 3.27 2.62.85 2.42l.11.1-1-1c.27 0 0-1.21.13-1.69ZM70.65 33c-1.22.71-1.52.37-2.27-.49.93-1.08 1.31-.25 2.27.49ZM81.76 68.61c-.63 1.27-1.27.94-2.35.73.77-.87 1.06-1.56 2.35-.73ZM80.86 15.83c-.71-4.89 3.35-.36-.13-.13ZM175.36 102.79c-1.17 1.15-1.56 1.38-3 1.33 1.04-1 1.22-1.6 3-1.33ZM119.07 32.66c-1.52 1-1.63.55-2.59-.39 1.05-.81 1.37-.27 2.59.39ZM181 105.05c-2.24 2.59-2.88-2 .13.15ZM20.08 60.39c-.31.83-.27 1.88-1.16 2.32-.78-1.28 1.08-1.59 1.16-2.32ZM227.26 62.8c-.33 1-.69.71-1.32.2.06-.91.75-.49 1.32-.2ZM173.52 98.33c.45.55 2 1.38.7 1.53-.7-.48-1.63-.6-.7-1.53Z"/><path class="cls-2" d="M108.55 17.41c-1.08 2-2.47 1.91-1.71.12h1.82ZM160.92 52.72c.66.93.72 1.16-.19 1.66-.73-.7-.65-.91.19-1.66ZM174.24 68.93c.92.3 2.17.06 2.12 1.39-1.13.45-1.43-1.32-2.12-1.39ZM5 132c-5 .8-1.77-2.47-.1.11ZM113.15 34.37c1.74.22.48 1.11.18 2.12-.98-.36-.19-1.34-.18-2.12ZM84.11 73c-.91 1-2.82 2.29-2.4 0l-.13.13h2.64ZM23.33 72.5c-.58.75-.88.19-1.34-.26.23-.89.78-.16 1.34.26ZM89.25 7.63c.24-1.14.59-.69 1.21-.1-.05.84-.73.28-1.21.1ZM79.58 8.38c-.25.79-.71.32-1.09-.09-.01-1.01.59-.36 1.09.09ZM213 68.09a9 9 0 0 1 2.27.39 1.26 1.26 0 0 1-2.17-.51ZM78.08 67.81c-.52.38-1.08 1-1.32.22.48-.48.74-1.03 1.32-.22ZM115.27 96.74l1.42.36-.69.9c-.26-.34-.41-1.47-.73-1.26ZM103.47 98.17c.91-.53 1 .13 1.41.71-.81.49-1-.1-1.41-.71ZM98.55 17.52c.93-2.61 2.62 1.84-.11-.1ZM107 110.6l-.59.92c-.25-.61-.53-1.17 0-1.75.16.23.36.53.59.83ZM67.36 54.6c.15-1.13 1-.76 1.7-.83l-.13-.12c.28 2-.76 1.29-1.68.83ZM10.91 117.8c.41-.59 1.63-1.22 1.6-1.78.17 1.29-.2 2-1.69 1.68ZM69 36.09c-.44.33-.95.9-1.29.2.51-.59.75-1.21 1.29-.2ZM73.92 32.5l-.3-.46c.38 0 .77-.21 1 .2ZM122.49 28.81c-.33.49-.64.41-1.09.12.33-.54.65-.41 1.09-.12ZM69.07 49.42a2.7 2.7 0 0 1-1.49-.36c.85-.48 1.13.26 1.49.36ZM119.32 50c-.51.24-.86.44-1.16-.19.5-.29.84-.42 1.16.19ZM31.9 52c-.17 1.1-1 .77-1.71.83A2.5 2.5 0 0 0 31.9 52Z"/><path class="cls-2" d="M69.06 53.77v-1.79l-.11.1h1L69.8 52c0 .7.23 1.54-.87 1.68ZM152.19 53.23c-.4.45-.69.4-1.16.14.33-.61.56-.43 1.16-.14ZM97.59 21.72c1.25.53 1.21 1.07 0 1.6l.12.1v-1.81ZM140.06 60.75c.65.33.4.6.09 1-.46-.22-.15-.57-.09-1ZM218.17 63.05a2.42 2.42 0 0 1 .32-1.49c.51.84-.21 1.12-.32 1.49ZM105.27 17.53c.15-1.1 1-.84 1.69-.86l-.11-.11v1l.12-.11h-1.8ZM102.37 17c-.4.35-.66.49-1 0 .29-.49.63-.16 1 0ZM132.77 65.11a.76.76 0 0 1-1.2 0 .76.76 0 0 1 1.2 0ZM136.44 64.8l.45.39c-.68.45-1.45.07-.45-.39ZM230.25 66c.38-.4.64-.36 1 0-.25.42-.59.11-1 0ZM.7 144.65c.08.43-.17 1.94-.64 1.21s.78-.86.64-1.21ZM7.83 129.19c.39-.45.64-.38 1 0-.25.48-.59.13-1 0ZM10.49 127.39c-.44.28-.73.52-1-.09.29-.4.63-.04 1 .09ZM11.59 125.33l-.41.49c-.46-.67-.09-1.46.41-.49ZM13.2 121.55a.85.85 0 0 1-1.31 0 .85.85 0 0 1 1.31 0ZM143.94 117.72c-.08.46-.16.92-.25 1.39-.17-.47-.34-.94-.52-1.41l-.11.12h1ZM23.46 68.09a3.4 3.4 0 0 1 1.43.24c-.47 1.04-.89-.52-1.43-.24ZM7.82 114.76c.42-.1.79-.45 1 0-.35.14-.72.47-1 0ZM75.48 68.47a.84.84 0 0 1-1.28 0 .84.84 0 0 1 1.28 0ZM124.4 111.94c.52.11.9.35.3.65-.55-.01-.76-.27-.3-.65ZM90.79 11.73c-.47.36-.61.14-.55-.42.29-.54.4.09.55.42ZM111.06 110.1a2.64 2.64 0 0 1-.34 1.45c-.45-.82.28-1.1.34-1.45ZM86.5 10.88c-.36 1-.71.51-1.4.29.31-.5.81-.23 1.4-.29ZM58.56 69.24c-.4.37-.67.49-1 0 .29-.46.63-.14 1 0ZM97.57 101.81a1.77 1.77 0 0 1 1.41.31c-.81.51-1.06-.22-1.41-.31ZM85 68.82c-.37.54-.59 1.11-1.32.62a1.32 1.32 0 0 1 1.41-.52ZM125.12 6c-.39.35-.66.47-1 0 .29-.4.64-.09 1 0ZM206.28 68.83l-.37 1.43-.4-1.43-.09.09h1ZM233.2 69.85c-.38.48-.63.28-.65-.29.3-.56.54-.2.65.29ZM112.86 6.57c.34-.54.51-1.11 1.26-.65a1.31 1.31 0 0 1-1.38.53ZM232.33 72.38c-.47.44-.58.13-.56-.42.29-.55.41.09.56.42ZM208.06 85.66h-1.81l.1.1c.59-1.45.99-.13 1.71-.1ZM63.53 75.84l.11.29-.28-.03.17-.26zM213.22 84.44l.32-.12-.02.28-.3-.16zM70.74 85.68l-.65-.29c.22.1.46.53.65.29ZM77.84 74.13l.1.28-.26-.03.16-.25zM171.32 72.84l-.14-.24.32.04-.18.2zM210.58 86.64l.27-.65c-.09.21-.52.47-.27.65ZM66.86 72.86l-.13-.29.31.03-.18.26zM74.11 89.05l-.67-.34c.23.11.47.59.67.34ZM69.91 89.89l-.62-.32c.21.11.43.6.62.32ZM18.03 72.45l.13.28-.31-.04.18-.24zM114.87.32l-.11-.24.27.04-.16.2zM111.5 90.58l-.12-.31.29.03-.17.28zM88.31 90.84l.67.31c-.24-.15-.48-.57-.67-.31ZM52.81 95.44c-.21.25-.33.23-.5 0 .21-.3.33-.29.5 0ZM24.79 71.6l.12.3-.29-.03.17-.27zM195.12 97.1l-.27.11.04-.28.23.17zM165 70.61l.69.31c-.27-.11-.52-.58-.69-.31ZM94.09 97.98l-.29.13.03-.3.26.17zM113.85 98.77l.31-.12-.03.3-.28-.18zM178.13 69.98l.12.23-.29-.04.17-.19zM99.13 100.51c-.17.23-.4.23-.46 0 .11-.31.33-.26.46 0ZM121 7.8l-.29.12.03-.29.26.17zM69.77 68.82l-.32.65c.11-.22.55-.47.32-.65ZM107.38 102.01l.1.28-.27-.04.17-.24zM20.54 69.49l-.12-.29.29.04-.17.25zM161.74 106l.25-.7c-.09.27-.51.53-.25.7Z"/><path class="cls-2" d="M160.76 106h1l-.12-.12v.94l.11-.11c-.27.05-1-.1-.87.11v-1ZM64.61 107.24c-.17.23-.39.23-.45 0 .11-.31.32-.24.45 0ZM103.09 108.26 103 108c.29 0 .19.08.09.26ZM122.11 110.11l-.63-.24c.35-.45.42 0 .53.35ZM64.34 39.16l-.1-.25.25.03-.15.22z"/><path class="cls-2" d="m122 110.22.66.29c-.22-.09-.47-.51-.66-.29ZM75.12 12l.27-.11-.04.27-.23-.16zM69.89 68.94l.34-.69c-.11.24-.6.49-.34.69ZM91.96 12.84l.28-.09-.03.24-.25-.15zM2.89 123.86l.08.3c-.31.02-.15-.16-.08-.3ZM8.76 124.78l.11.23-.27-.04.16-.19zM23.57 68l-.69-.31c.23.08.5.52.69.31ZM18.31 67.67c-.17.23-.39.23-.45 0 .14-.33.32-.27.45 0ZM2.84 128.48l-.1-.3.26.04-.16.26zM7.1 130.55l.22.29h-.47ZM87.59 14.13l.32-.66c-.11.23-.58.47-.32.66Z"/><path class="cls-2" d="m87.47 14-.26.61c.09-.19.52-.42.26-.61ZM80.73 15.7l-.31.62c.11-.21.58-.43.31-.62ZM97.7 18.37c.21-.33.92-.65.74-.95-.21.33-.96.64-.74.95ZM101.89 63.86l.38-.66c.17.17.29.78.49.56h-1ZM135.11 61.88l-.13-.24.3.04-.17.2zM131.28 59.53l-.3.72c.1-.25.56-.52.3-.72ZM25 59.15l-.28.24v-.5ZM142.45 57.48l.31-.09c.02.32-.12.16-.31.09ZM147.39 57.13l.29-.62c-.09.2-.53.49-.29.62ZM136.02 56.47l.1.29-.25-.03.15-.26zM88.76 56.88l-.12-.29.28.02-.16.27zM58.11 56.18l-.62-.32c.21.14.43.57.62.32ZM73.65 22.8l.11.27-.28-.05.17-.22zM207.2 53.76l.26-.64.28.32c-.18.12-.74.12-.54.32ZM101.8 22.45l-.31.68c.1-.23.51-.48.31-.68ZM117.9 23.32l-.67-.32c.23.09.48.49.67.32ZM69.05 52l-.67-.38c.18-.17.78-.29.56-.49v1ZM74 45.35c.33.2.67.92 1 .71h-1l.12.12v-1ZM55.15 45.49l.12.31-.29-.02.17-.29z"/><path class="cls-2" d="m74.12 45.22-.67-.32c.23.1.47.59.67.32ZM72.44 33.42l-.67-.33c.23.12.47.6.67.33ZM69.05 41.13l.3-.63-.42.51ZM121.29 33.53l.32-.64c-.11.23-.61.45-.32.64Z"/><path class="cls-2" d="M121.17 33.41c-.12.34-.21.8-.53.32l.65-.2ZM166.66 68.08c.45.13.86.18.37.57l-.27-.67ZM86.62 78.2c.77.22.6.7.44 1.31a3 3 0 0 1-.31-1.44ZM217.21 77.38c-1.42-3.32-.19-4.41 3.11-3a18.8 18.8 0 0 1-3.11 3Z"/></g></g></svg>